<svg width="65" height="34" viewBox="0 0 65 34" fill="none" xmlns="http://www.w3.org/2000/svg">
<path d="M6.66 18.18C4.92 18.18 3.588 17.73 2.664 16.83C1.752 15.918 1.296 14.574 1.296 12.798V5.31H3.6V12.78C3.6 13.92 3.858 14.778 4.374 15.354C4.902 15.918 5.664 16.2 6.66 16.2C8.688 16.2 9.702 15.06 9.702 12.78V5.31H11.988V12.798C11.988 14.574 11.538 15.918 10.638 16.83C9.738 17.73 8.412 18.18 6.66 18.18ZM14.4591 18V5.31H16.7091V12.942H16.7451L20.2911 9.198H23.0091L19.0131 13.41L23.2611 18H20.5071L16.7451 14.076H16.7091V18H14.4591ZM24.1095 18V5.31H26.3595V10.476C26.6595 9.996 27.0615 9.636 27.5655 9.396C28.0695 9.144 28.6275 9.018 29.2395 9.018C31.3155 9.018 32.3535 10.224 32.3535 12.636V18H30.1035V12.744C30.1035 12.06 29.9715 11.562 29.7075 11.25C29.4555 10.938 29.0595 10.782 28.5195 10.782C27.8595 10.782 27.3315 10.992 26.9355 11.412C26.5515 11.82 26.3595 12.366 26.3595 13.05V18H24.1095ZM37.5368 18.18C36.9008 18.18 36.3308 18.06 35.8268 17.82C35.3348 17.568 34.9448 17.232 34.6567 16.812C34.3808 16.392 34.2428 15.918 34.2428 15.39C34.2428 14.742 34.4108 14.232 34.7468 13.86C35.0828 13.476 35.6288 13.2 36.3848 13.032C37.1408 12.864 38.1548 12.78 39.4268 12.78H40.0568V12.402C40.0568 11.802 39.9248 11.37 39.6608 11.106C39.3968 10.842 38.9528 10.71 38.3288 10.71C37.8368 10.71 37.3328 10.788 36.8168 10.944C36.3008 11.088 35.7788 11.316 35.2508 11.628L34.6028 10.098C34.9148 9.882 35.2808 9.696 35.7008 9.54C36.1328 9.372 36.5828 9.246 37.0508 9.162C37.5308 9.066 37.9808 9.018 38.4008 9.018C39.6848 9.018 40.6388 9.318 41.2628 9.918C41.8868 10.506 42.1988 11.424 42.1988 12.672V18H40.0928V16.596C39.8888 17.088 39.5648 17.478 39.1208 17.766C38.6768 18.042 38.1488 18.18 37.5368 18.18ZM38.0048 16.632C38.5928 16.632 39.0788 16.428 39.4628 16.02C39.8588 15.612 40.0568 15.096 40.0568 14.472V14.076H39.4448C38.3168 14.076 37.5308 14.166 37.0868 14.346C36.6548 14.514 36.4388 14.826 36.4388 15.282C36.4388 15.678 36.5768 16.002 36.8528 16.254C37.1288 16.506 37.5128 16.632 38.0048 16.632ZM44.4825 18V9.198H46.6785V10.566C46.9785 10.062 47.3805 9.678 47.8845 9.414C48.4005 9.15 48.9765 9.018 49.6125 9.018C51.6885 9.018 52.7265 10.224 52.7265 12.636V18H50.4765V12.744C50.4765 12.06 50.3445 11.562 50.0805 11.25C49.8285 10.938 49.4325 10.782 48.8925 10.782C48.2325 10.782 47.7045 10.992 47.3085 11.412C46.9245 11.82 46.7325 12.366 46.7325 13.05V18H44.4825ZM59.1158 21.42C58.2998 21.42 57.5318 21.324 56.8118 21.132C56.1038 20.952 55.4798 20.67 54.9398 20.286L55.5878 18.72C56.0918 19.056 56.6318 19.302 57.2078 19.458C57.7838 19.626 58.3598 19.71 58.9358 19.71C60.5438 19.71 61.3478 18.936 61.3478 17.388V16.182C61.0958 16.674 60.7058 17.064 60.1778 17.352C59.6618 17.64 59.0858 17.784 58.4498 17.784C57.6578 17.784 56.9678 17.604 56.3798 17.244C55.7918 16.872 55.3358 16.356 55.0118 15.696C54.6878 15.036 54.5258 14.268 54.5258 13.392C54.5258 12.516 54.6878 11.754 55.0118 11.106C55.3358 10.446 55.7918 9.936 56.3798 9.576C56.9678 9.204 57.6578 9.018 58.4498 9.018C59.1098 9.018 59.6978 9.168 60.2138 9.468C60.7298 9.756 61.1078 10.146 61.3478 10.638V9.198H63.5438V17.118C63.5438 18.546 63.1658 19.62 62.4098 20.34C61.6538 21.06 60.5558 21.42 59.1158 21.42ZM59.0618 16.074C59.7578 16.074 60.3098 15.834 60.7178 15.354C61.1258 14.874 61.3298 14.22 61.3298 13.392C61.3298 12.564 61.1258 11.916 60.7178 11.448C60.3098 10.968 59.7578 10.728 59.0618 10.728C58.3658 10.728 57.8138 10.968 57.4058 11.448C56.9978 11.916 56.7938 12.564 56.7938 13.392C56.7938 14.22 56.9978 14.874 57.4058 15.354C57.8138 15.834 58.3658 16.074 59.0618 16.074Z" fill="#2C2C2E"/>
<path d="M25.008 30V21.54H26.052L29.184 27.384L32.304 21.54H33.324V30H32.208V23.796L29.556 28.704H28.8L26.136 23.82V30H25.008ZM37.0599 30.108C36.6519 30.108 36.2879 30.028 35.9679 29.868C35.6479 29.708 35.3919 29.492 35.1999 29.22C35.0159 28.948 34.9239 28.64 34.9239 28.296C34.9239 27.864 35.0319 27.524 35.2479 27.276C35.4719 27.028 35.8359 26.848 36.3399 26.736C36.8519 26.624 37.5399 26.568 38.4039 26.568H38.8119V26.256C38.8119 25.8 38.7159 25.472 38.5239 25.272C38.3319 25.072 38.0159 24.972 37.5759 24.972C37.2399 24.972 36.9039 25.024 36.5679 25.128C36.2319 25.224 35.8879 25.38 35.5359 25.596L35.1639 24.744C35.4679 24.528 35.8479 24.356 36.3039 24.228C36.7599 24.1 37.1959 24.036 37.6119 24.036C38.4119 24.036 39.0039 24.228 39.3879 24.612C39.7719 24.988 39.9639 25.58 39.9639 26.388V30H38.8239V29.028C38.6799 29.364 38.4559 29.628 38.1519 29.82C37.8479 30.012 37.4839 30.108 37.0599 30.108ZM37.2999 29.244C37.7319 29.244 38.0919 29.092 38.3799 28.788C38.6679 28.484 38.8119 28.1 38.8119 27.636V27.312H38.4159C37.8319 27.312 37.3719 27.34 37.0359 27.396C36.7079 27.452 36.4719 27.548 36.3279 27.684C36.1919 27.812 36.1239 27.992 36.1239 28.224C36.1239 28.528 36.2279 28.776 36.4359 28.968C36.6439 29.152 36.9319 29.244 37.2999 29.244ZM41.6333 30V24.144H42.8093V25.188C43.1133 24.492 43.7453 24.104 44.7053 24.024L45.1013 24L45.1853 25.032L44.4533 25.104C43.3893 25.208 42.8573 25.756 42.8573 26.748V30H41.6333ZM46.1338 30V24.144H47.3098V25.092C47.4858 24.756 47.7298 24.496 48.0418 24.312C48.3538 24.128 48.7178 24.036 49.1338 24.036C50.0298 24.036 50.6098 24.428 50.8738 25.212C51.0578 24.844 51.3218 24.556 51.6658 24.348C52.0098 24.14 52.4018 24.036 52.8418 24.036C54.1538 24.036 54.8098 24.82 54.8098 26.388V30H53.5978V26.448C53.5978 25.952 53.5098 25.588 53.3338 25.356C53.1658 25.124 52.8858 25.008 52.4938 25.008C52.0538 25.008 51.7058 25.164 51.4498 25.476C51.1938 25.78 51.0658 26.196 51.0658 26.724V30H49.8538V26.448C49.8538 25.952 49.7698 25.588 49.6018 25.356C49.4338 25.124 49.1538 25.008 48.7618 25.008C48.3218 25.008 47.9738 25.164 47.7178 25.476C47.4698 25.78 47.3458 26.196 47.3458 26.724V30H46.1338ZM58.3763 30.108C57.9683 30.108 57.6043 30.028 57.2843 29.868C56.9643 29.708 56.7083 29.492 56.5163 29.22C56.3323 28.948 56.2403 28.64 56.2403 28.296C56.2403 27.864 56.3483 27.524 56.5643 27.276C56.7883 27.028 57.1523 26.848 57.6563 26.736C58.1683 26.624 58.8563 26.568 59.7203 26.568H60.1283V26.256C60.1283 25.8 60.0323 25.472 59.8403 25.272C59.6483 25.072 59.3323 24.972 58.8923 24.972C58.5563 24.972 58.2203 25.024 57.8843 25.128C57.5483 25.224 57.2043 25.38 56.8523 25.596L56.4803 24.744C56.7843 24.528 57.1643 24.356 57.6203 24.228C58.0763 24.1 58.5123 24.036 58.9283 24.036C59.7283 24.036 60.3203 24.228 60.7043 24.612C61.0883 24.988 61.2803 25.58 61.2803 26.388V30H60.1403V29.028C59.9963 29.364 59.7723 29.628 59.4683 29.82C59.1643 30.012 58.8003 30.108 58.3763 30.108ZM58.6163 29.244C59.0483 29.244 59.4083 29.092 59.6963 28.788C59.9843 28.484 60.1283 28.1 60.1283 27.636V27.312H59.7323C59.1483 27.312 58.6883 27.34 58.3523 27.396C58.0243 27.452 57.7883 27.548 57.6443 27.684C57.5083 27.812 57.4403 27.992 57.4403 28.224C57.4403 28.528 57.5443 28.776 57.7523 28.968C57.9603 29.152 58.2483 29.244 58.6163 29.244Z" fill="#2C2C2E"/>
</svg>
